<?xml version="1.0" encoding="UTF-8"?>
<svg width="200" height="240" viewBox="0 0 200 240" xmlns="http://www.w3.org/2000/svg" role="img" aria-labelledby="title desc">
  <title id="title">LUCE Planet Mark</title>
  <desc id="desc">Solid black planet with orbiting ring and LUCE logotype.</desc>
  <g fill="none" fill-rule="evenodd">
    <path d="M45.6 108.3C26 115.4 12 124 9 132.8c-4.3 12 16 25.6 57.6 30 41.7 4.4 99.8-2.8 134-18.2 24.7-10.9 33.9-22.2 30-31.5-3.5-8.1-17.7-14-42-16.4" stroke="#000" stroke-width="18" stroke-linecap="round" stroke-linejoin="round"/>
    <ellipse cx="112" cy="104" rx="72" ry="74" fill="#000"/>
    <path d="M74 77c17-16.2 45-19.6 63.4-8.1 21.3 12.9 20.2 40.5-3 52.3-14 7.1-32 6.7-45.8-.6" stroke="#fff" stroke-width="9" stroke-linecap="round" stroke-linejoin="round" opacity=".8"/>
    <circle cx="142" cy="74" r="6.5" fill="#fff" opacity=".85"/>
    <path d="M45.6 108.3C26 115.4 12 124 9 132.8c-4.3 12 16 25.6 57.6 30 41.7 4.4 99.8-2.8 134-18.2" fill="#000" fill-opacity=".08"/>
    <text x="112" y="212" text-anchor="middle" font-family="'Pretendard','Noto Sans KR','Apple SD Gothic Neo',sans-serif" font-size="44" font-weight="700" letter-spacing=".14em" fill="#000">LUCE</text>
  </g>
</svg>
